<svg width="28" height="28" viewBox="0 0 28 28" fill="none" xmlns="http://www.w3.org/2000/svg">
<path d="M0 2C0 0.895431 0.895431 0 2 0H26C27.1046 0 28 0.895431 28 2V26C28 27.1046 27.1046 28 26 28H2C0.895431 28 0 27.1046 0 26V2Z" fill="white"/>
<path fill-rule="evenodd" clip-rule="evenodd" d="M15.6608 23.3329V14.8186H18.5355L18.966 11.4994H15.662V9.38191C15.662 8.42057 15.9303 7.76607 17.3152 7.76607H19.0827V4.79574C18.227 4.70571 17.367 4.66248 16.5067 4.66624C13.9598 4.66624 12.2157 6.21324 12.2157 9.05291V11.4994H9.33398V14.8186H12.2157V23.3329H15.6608Z" fill="#224084"/>
</svg>
