<svg width="28" height="28" viewBox="4 0 28 28" fill="none" xmlns="http://www.w3.org/2000/svg">
<g filter="url(#filter0_d_1416_39053)">
<path d="M4 2C4 0.895431 4.89543 0 6 0H30C31.1046 0 32 0.895431 32 2V26C32 27.1046 31.1046 28 30 28H6C4.89543 28 4 27.1046 4 26V2Z" fill="#E79B24"/>
<path fill-rule="evenodd" clip-rule="evenodd" d="M19.6608 23.3329V14.8186H22.5355L22.966 11.4994H19.662V9.38191C19.662 8.42057 19.9303 7.76607 21.3152 7.76607H23.0827V4.79574C22.227 4.70571 21.367 4.66248 20.5067 4.66624C17.9598 4.66624 16.2157 6.21324 16.2157 9.05291V11.4994H13.334V14.8186H16.2157V23.3329H19.6608Z" fill="white"/>
</g>
<defs>
<filter id="filter0_d_1416_39053" x="0" y="0" width="36" height="36" filterUnits="userSpaceOnUse" color-interpolation-filters="sRGB">
<feFlood flood-opacity="0" result="BackgroundImageFix"/>
<feColorMatrix in="SourceAlpha" type="matrix" values="0 0 0 0 0 0 0 0 0 0 0 0 0 0 0 0 0 0 127 0" result="hardAlpha"/>
<feOffset dy="4"/>
<feGaussianBlur stdDeviation="2"/>
<feComposite in2="hardAlpha" operator="out"/>
<feColorMatrix type="matrix" values="0 0 0 0 0 0 0 0 0 0 0 0 0 0 0 0 0 0 0.25 0"/>
<feBlend mode="normal" in2="BackgroundImageFix" result="effect1_dropShadow_1416_39053"/>
<feBlend mode="normal" in="SourceGraphic" in2="effect1_dropShadow_1416_39053" result="shape"/>
</filter>
</defs>
</svg>
