<svg width="28" height="28" viewBox="4 0 28 28" fill="none" xmlns="http://www.w3.org/2000/svg">
<g filter="url(#filter0_d_1416_39060)">
<path d="M18 0C21.8038 0 22.2784 0.0139999 23.7708 0.0839999C25.2618 0.154 26.2768 0.3878 27.17 0.735C28.094 1.0906 28.8724 1.5722 29.6508 2.3492C30.3627 3.04905 30.9135 3.89562 31.265 4.83C31.6108 5.7218 31.846 6.7382 31.916 8.2292C31.9818 9.7216 32 10.1962 32 14C32 17.8038 31.986 18.2784 31.916 19.7708C31.846 21.2618 31.6108 22.2768 31.265 23.17C30.9145 24.1049 30.3636 24.9517 29.6508 25.6508C28.9507 26.3624 28.1042 26.9133 27.17 27.265C26.2782 27.6108 25.2618 27.846 23.7708 27.916C22.2784 27.9818 21.8038 28 18 28C14.1962 28 13.7216 27.986 12.2292 27.916C10.7382 27.846 9.7232 27.6108 8.83 27.265C7.89526 26.9143 7.04854 26.3633 6.3492 25.6508C5.63717 24.9511 5.0863 24.1045 4.735 23.17C4.3878 22.2782 4.154 21.2618 4.084 19.7708C4.0182 18.2784 4 17.8038 4 14C4 10.1962 4.014 9.7216 4.084 8.2292C4.154 6.7368 4.3878 5.7232 4.735 4.83C5.08533 3.89505 5.63633 3.04825 6.3492 2.3492C7.04874 1.63692 7.8954 1.08602 8.83 0.735C9.7232 0.3878 10.7368 0.154 12.2292 0.0839999C13.7216 0.0181999 14.1962 0 18 0ZM18 7C16.1435 7 14.363 7.7375 13.0503 9.05025C11.7375 10.363 11 12.1435 11 14C11 15.8565 11.7375 17.637 13.0503 18.9497C14.363 20.2625 16.1435 21 18 21C19.8565 21 21.637 20.2625 22.9497 18.9497C24.2625 17.637 25 15.8565 25 14C25 12.1435 24.2625 10.363 22.9497 9.05025C21.637 7.7375 19.8565 7 18 7ZM27.1 6.65C27.1 6.18587 26.9156 5.74075 26.5874 5.41256C26.2593 5.08437 25.8141 4.9 25.35 4.9C24.8859 4.9 24.4408 5.08437 24.1126 5.41256C23.7844 5.74075 23.6 6.18587 23.6 6.65C23.6 7.11413 23.7844 7.55925 24.1126 7.88744C24.4408 8.21563 24.8859 8.4 25.35 8.4C25.8141 8.4 26.2593 8.21563 26.5874 7.88744C26.9156 7.55925 27.1 7.11413 27.1 6.65ZM18 9.8C19.1139 9.8 20.1822 10.2425 20.9698 11.0302C21.7575 11.8178 22.2 12.8861 22.2 14C22.2 15.1139 21.7575 16.1822 20.9698 16.9698C20.1822 17.7575 19.1139 18.2 18 18.2C16.8861 18.2 15.8178 17.7575 15.0302 16.9698C14.2425 16.1822 13.8 15.1139 13.8 14C13.8 12.8861 14.2425 11.8178 15.0302 11.0302C15.8178 10.2425 16.8861 9.8 18 9.8Z" fill="#E79B24"/>
</g>
<defs>
<filter id="filter0_d_1416_39060" x="0" y="0" width="36" height="36" filterUnits="userSpaceOnUse" color-interpolation-filters="sRGB">
<feFlood flood-opacity="0" result="BackgroundImageFix"/>
<feColorMatrix in="SourceAlpha" type="matrix" values="0 0 0 0 0 0 0 0 0 0 0 0 0 0 0 0 0 0 127 0" result="hardAlpha"/>
<feOffset dy="4"/>
<feGaussianBlur stdDeviation="2"/>
<feComposite in2="hardAlpha" operator="out"/>
<feColorMatrix type="matrix" values="0 0 0 0 0 0 0 0 0 0 0 0 0 0 0 0 0 0 0.25 0"/>
<feBlend mode="normal" in2="BackgroundImageFix" result="effect1_dropShadow_1416_39060"/>
<feBlend mode="normal" in="SourceGraphic" in2="effect1_dropShadow_1416_39060" result="shape"/>
</filter>
</defs>
</svg>
