<svg width="28" height="28" viewBox="4 0 28 28" fill="none" xmlns="http://www.w3.org/2000/svg">
<g filter="url(#filter0_d_1416_39063)">
<path d="M4 2C4 0.895431 4.89543 0 6 0H30C31.1046 0 32 0.895431 32 2V26C32 27.1046 31.1046 28 30 28H6C4.89543 28 4 27.1046 4 26V2Z" fill="#E79B24"/>
<path fill-rule="evenodd" clip-rule="evenodd" d="M8.90402 10.4235H12.8823V22.418H8.90402V10.4235ZM10.9165 4.66602C9.55502 4.66602 8.66602 5.56318 8.66602 6.73802C8.66602 7.88952 9.52935 8.81118 10.864 8.81118H10.8897C12.278 8.81118 13.1413 7.88952 13.1413 6.73802C13.1145 5.56318 12.278 4.66602 10.9165 4.66602ZM22.6439 10.1668C20.5322 10.1668 19.5872 11.33 19.0587 12.1478V10.4492H15.0803C15.1328 11.575 15.0803 22.4437 15.0803 22.4437H19.0587V15.7447C19.0587 15.3865 19.0844 15.0283 19.1894 14.7717C19.4763 14.0565 20.1308 13.3133 21.231 13.3133C22.6695 13.3133 23.2458 14.4147 23.2458 16.0258V22.4437H27.2242V15.565C27.2242 11.8807 25.2607 10.1668 22.6439 10.1668Z" fill="white"/>
</g>
<defs>
<filter id="filter0_d_1416_39063" x="0" y="0" width="36" height="36" filterUnits="userSpaceOnUse" color-interpolation-filters="sRGB">
<feFlood flood-opacity="0" result="BackgroundImageFix"/>
<feColorMatrix in="SourceAlpha" type="matrix" values="0 0 0 0 0 0 0 0 0 0 0 0 0 0 0 0 0 0 127 0" result="hardAlpha"/>
<feOffset dy="4"/>
<feGaussianBlur stdDeviation="2"/>
<feComposite in2="hardAlpha" operator="out"/>
<feColorMatrix type="matrix" values="0 0 0 0 0 0 0 0 0 0 0 0 0 0 0 0 0 0 0.25 0"/>
<feBlend mode="normal" in2="BackgroundImageFix" result="effect1_dropShadow_1416_39063"/>
<feBlend mode="normal" in="SourceGraphic" in2="effect1_dropShadow_1416_39063" result="shape"/>
</filter>
</defs>
</svg>
