<svg width="28" height="28" viewBox="0 0 28 28" fill="none" xmlns="http://www.w3.org/2000/svg">
<path d="M0 2C0 0.895431 0.895431 0 2 0H26C27.1046 0 28 0.895431 28 2V26C28 27.1046 27.1046 28 26 28H2C0.895431 28 0 27.1046 0 26V2Z" fill="white"/>
<path fill-rule="evenodd" clip-rule="evenodd" d="M4.90402 10.4235H8.88235V22.418H4.90402V10.4235ZM6.91652 4.66602C5.55502 4.66602 4.66602 5.56318 4.66602 6.73802C4.66602 7.88952 5.52935 8.81118 6.86402 8.81118H6.88968C8.27802 8.81118 9.14135 7.88952 9.14135 6.73802C9.11452 5.56318 8.27802 4.66602 6.91652 4.66602ZM18.6439 10.1668C16.5322 10.1668 15.5872 11.33 15.0587 12.1478V10.4492H11.0803C11.1328 11.575 11.0803 22.4437 11.0803 22.4437H15.0587V15.7447C15.0587 15.3865 15.0844 15.0283 15.1894 14.7717C15.4764 14.0565 16.1309 13.3133 17.231 13.3133C18.6695 13.3133 19.2458 14.4147 19.2458 16.0258V22.4437H23.2242V15.565C23.2242 11.8807 21.2607 10.1668 18.6439 10.1668V10.1668Z" fill="#224084"/>
</svg>
