<svg width="28" height="28" viewBox="0 0 28 28" fill="none" xmlns="http://www.w3.org/2000/svg">
<path d="M0 2C0 0.895431 0.895431 0 2 0H26C27.1046 0 28 0.895431 28 2V26C28 27.1046 27.1046 28 26 28H2C0.895431 28 0 27.1046 0 26V2Z" fill="white"/>
<path fill-rule="evenodd" clip-rule="evenodd" d="M23.3327 7.63374C22.6339 7.9435 21.8926 8.14681 21.1335 8.23691C21.933 7.75816 22.5313 7.00522 22.817 6.11824C22.065 6.56416 21.2423 6.87824 20.3845 7.04691C19.8079 6.43084 19.044 6.02241 18.2115 5.88507C17.3789 5.74772 16.5243 5.88915 15.7804 6.28738C15.0365 6.6856 14.4449 7.31834 14.0975 8.08732C13.7501 8.8563 13.6664 9.71846 13.8593 10.5399C12.3366 10.4636 10.8469 10.0679 9.48697 9.37851C8.12705 8.68911 6.92733 7.72141 5.96568 6.53824C5.47448 7.38094 5.32362 8.37941 5.54393 9.32961C5.76425 10.2798 6.3391 11.11 7.15102 11.6506C6.5429 11.6316 5.94811 11.4676 5.41618 11.1722V11.2201C5.41663 12.1041 5.7227 12.9609 6.28253 13.6451C6.84237 14.3293 7.62154 14.7989 8.48802 14.9744C7.92407 15.1269 7.33286 15.1492 6.75902 15.0397C7.00356 15.8007 7.47981 16.4661 8.12117 16.9431C8.76252 17.42 9.53691 17.6846 10.336 17.6997C9.54141 18.3234 8.6316 18.7843 7.65867 19.056C6.68574 19.3276 5.66879 19.4047 4.66602 19.2829C6.41696 20.4087 8.45504 21.0065 10.5367 21.0049C17.581 21.0049 21.4333 15.1716 21.4333 10.1117C21.4333 9.94491 21.4287 9.77924 21.4217 9.61591C22.1715 9.07365 22.8186 8.40202 23.3327 7.63258V7.63374Z" fill="#224084"/>
</svg>
