<svg width="28" height="28" viewBox="4 0 28 28" fill="none" xmlns="http://www.w3.org/2000/svg">
<g filter="url(#filter0_d_1416_39055)">
<path d="M4 2C4 0.895431 4.89543 0 6 0H30C31.1046 0 32 0.895431 32 2V26C32 27.1046 31.1046 28 30 28H6C4.89543 28 4 27.1046 4 26V2Z" fill="#E79B24"/>
<path fill-rule="evenodd" clip-rule="evenodd" d="M27.3327 7.63374C26.6339 7.9435 25.8926 8.14681 25.1335 8.23691C25.933 7.75816 26.5313 7.00522 26.817 6.11824C26.065 6.56416 25.2423 6.87824 24.3845 7.04691C23.8079 6.43084 23.044 6.02241 22.2115 5.88507C21.3789 5.74772 20.5243 5.88915 19.7804 6.28738C19.0365 6.6856 18.4449 7.31834 18.0975 8.08732C17.7501 8.8563 17.6664 9.71846 17.8593 10.5399C16.3366 10.4636 14.8469 10.0679 13.487 9.37851C12.1271 8.68911 10.9273 7.72141 9.96568 6.53824C9.47448 7.38094 9.32362 8.37941 9.54393 9.32961C9.76425 10.2798 10.3391 11.11 11.151 11.6506C10.5429 11.6316 9.94811 11.4676 9.41618 11.1722V11.2201C9.41663 12.1041 9.7227 12.9609 10.2825 13.6451C10.8424 14.3293 11.6215 14.7989 12.488 14.9744C11.9241 15.1269 11.3329 15.1492 10.759 15.0397C11.0036 15.8007 11.4798 16.4661 12.1212 16.9431C12.7625 17.42 13.5369 17.6846 14.336 17.6997C13.5414 18.3234 12.6316 18.7843 11.6587 19.056C10.6857 19.3276 9.66879 19.4047 8.66602 19.2829C10.417 20.4087 12.455 21.0065 14.5367 21.0049C21.581 21.0049 25.4333 15.1716 25.4333 10.1117C25.4333 9.94491 25.4287 9.77924 25.4217 9.61591C26.1715 9.07365 26.8186 8.40202 27.3327 7.63258V7.63374Z" fill="white"/>
</g>
<defs>
<filter id="filter0_d_1416_39055" x="0" y="0" width="36" height="36" filterUnits="userSpaceOnUse" color-interpolation-filters="sRGB">
<feFlood flood-opacity="0" result="BackgroundImageFix"/>
<feColorMatrix in="SourceAlpha" type="matrix" values="0 0 0 0 0 0 0 0 0 0 0 0 0 0 0 0 0 0 127 0" result="hardAlpha"/>
<feOffset dy="4"/>
<feGaussianBlur stdDeviation="2"/>
<feComposite in2="hardAlpha" operator="out"/>
<feColorMatrix type="matrix" values="0 0 0 0 0 0 0 0 0 0 0 0 0 0 0 0 0 0 0.25 0"/>
<feBlend mode="normal" in2="BackgroundImageFix" result="effect1_dropShadow_1416_39055"/>
<feBlend mode="normal" in="SourceGraphic" in2="effect1_dropShadow_1416_39055" result="shape"/>
</filter>
</defs>
</svg>
