<svg width="36" height="28" viewBox="0 0 36 28" fill="none" xmlns="http://www.w3.org/2000/svg">
<path d="M33.5413 5.17322C34.3125 8.03185 34.3125 13.9993 34.3125 13.9993C34.3125 13.9993 34.3125 19.9668 33.5413 22.8255C33.1127 24.4056 31.8589 25.6488 30.2709 26.0691C27.387 26.8327 17.4375 26.8327 17.4375 26.8327C17.4375 26.8327 7.49306 26.8327 4.60406 26.0691C3.00938 25.6424 1.75725 24.4008 1.33369 22.8255C0.5625 19.9668 0.5625 13.9993 0.5625 13.9993C0.5625 13.9993 0.5625 8.03185 1.33369 5.17322C1.76231 3.59312 3.01613 2.34989 4.60406 1.9296C7.49306 1.16602 17.4375 1.16602 17.4375 1.16602C17.4375 1.16602 27.387 1.16602 30.2709 1.9296C31.8656 2.35631 33.1177 3.59793 33.5413 5.17322ZM14.0625 19.6139L24.1875 13.9993L14.0625 8.38477V19.6139Z" fill="white"/>
</svg>
